<svg id="Layer_1" data-name="Layer 1" xmlns="http://www.w3.org/2000/svg" xmlns:xlink="http://www.w3.org/1999/xlink" width="812" height="154.14" viewBox="0 0 812 154.14">
	<defs>
		<linearGradient id="linear-gradient" x1="565.98" y1="456.33" x2="586.07" y2="555.97" gradientUnits="userSpaceOnUse">
			<stop offset="0" stop-color="#083e66"/>
			<stop offset="1" stop-color="#00aae8"/>
		</linearGradient>
		<linearGradient id="linear-gradient-2" x1="614.83" y1="446.48" x2="634.93" y2="546.12" xlink:href="#linear-gradient"/>
		<linearGradient id="linear-gradient-3" x1="663.48" y1="436.67" x2="683.57" y2="536.31" xlink:href="#linear-gradient"/>
		<linearGradient id="linear-gradient-4" x1="259.49" y1="-10.86" x2="324.5" y2="131.16" xlink:href="#linear-gradient"/>
		<linearGradient id="linear-gradient-5" x1="760.29" y1="476.42" x2="825.3" y2="618.44" xlink:href="#linear-gradient"/>
		<linearGradient id="linear-gradient-6" x1="276.57" y1="-18.68" x2="341.58" y2="123.34" xlink:href="#linear-gradient"/>
		<linearGradient id="linear-gradient-7" x1="875.12" y1="423.86" x2="940.12" y2="565.88" xlink:href="#linear-gradient"/>
	</defs>
	<path d="M579.25,540h29.53s11.63,3.08,8,15.73-16.87,61.34-16.87,61.34H573.32l16.54-61.52a12.52,12.52,0,0,0-.4-7.93C588.2,544.56,585.41,541.2,579.25,540Z" transform="translate(-554 -462.93)" fill="#2d2762"/>
	<path d="M635.22,575.79h26.85c-5.11,18.54-11.32,41.27-11.32,41.27H624.18Z" transform="translate(-554 -462.93)" fill="#2d2762"/>
	<path d="M667.64,555.71c-.64,2.19-1.55,5.57-2.65,9.49H638.15l2.55-9.68a12.51,12.51,0,0,0-.36-7.94c-1.28-3-4.11-6.39-10.23-7.58H659.6S671.29,543.11,667.64,555.71Z" transform="translate(-554 -462.93)" fill="#2d2762"/>
	<path d="M680.15,540h29.52s11.63,3.08,8,15.73-16.87,61.34-16.87,61.34H674.22l16.53-61.52a12.38,12.38,0,0,0-.4-7.93C689.1,544.56,686.3,541.2,680.15,540Z" transform="translate(-554 -462.93)" fill="#2d2762"/>
	<path d="M589.46,462.93H559.93c6.15,1.2,8.94,4.56,10.2,7.63a12.45,12.45,0,0,1,.41,7.93L554,540h26.57s13.21-48.68,16.86-61.34S589.46,462.93,589.46,462.93Z" transform="translate(-554 -462.93)" fill="url(#linear-gradient)"/>
	<path d="M640.31,462.93H610.77c6.17,1.2,9,4.56,10.21,7.63a12.38,12.38,0,0,1,.4,7.93L604.84,540h26.57s13.23-48.68,16.87-61.34S640.31,462.93,640.31,462.93Z" transform="translate(-554 -462.93)" fill="url(#linear-gradient-2)"/>
	<path d="M690.92,462.93H661.39c6.16,1.2,9,4.56,10.21,7.63a12.45,12.45,0,0,1,.4,7.93L655.46,540H682s13.23-48.68,16.87-61.34S690.92,462.93,690.92,462.93Z" transform="translate(-554 -462.93)" fill="url(#linear-gradient-3)"/>
	<rect x="295.4" y="68.17" width="23.29" height="49.73" fill="url(#linear-gradient-4)"/>
	<path d="M827.62,499.36h-84v81.48h23.11v-59.9H781v59.9h23.11V522.48h12.13v58.36h23.11V510.73a11,11,0,0,0-3.36-7.9A11.21,11.21,0,0,0,827.62,499.36Z" transform="translate(-554 -462.93)" fill="url(#linear-gradient-5)"/>
	<rect x="295.39" y="36.24" width="23.3" height="23.29" fill="url(#linear-gradient-6)"/>
	<path d="M966.5,499.36h-84v81.48h23.12v-59.9h14.24v59.9H943V522.48h12.14v58.36h23.11V510.73a11,11,0,0,0-3.37-7.9A11.24,11.24,0,0,0,966.5,499.36Z" transform="translate(-554 -462.93)" fill="url(#linear-gradient-7)"/>
	<path d="M1084.39,522.09V499.36H999.83a11.35,11.35,0,0,0-8,3.37,10.84,10.84,0,0,0-3.56,8.19v28.51a12,12,0,0,0,11.55,11.74h61.26v6.17H988.28v23.3h84.36a11.68,11.68,0,0,0,8.09-3.37,10.71,10.71,0,0,0,3.66-8.18V539.43a10,10,0,0,0-1-4.24,12.72,12.72,0,0,0-2.6-3.76,12.55,12.55,0,0,0-3.75-2.6,10.61,10.61,0,0,0-4.43-1h-61.06v-5.78Z" transform="translate(-554 -462.93)" fill="#2d2762"/>
	<path d="M1187.16,577.18a10.73,10.73,0,0,1-8.19,3.66h-73a10.7,10.7,0,0,1-8.18-3.66,11.48,11.48,0,0,1-3.37-7.9V510.54a11.15,11.15,0,0,1,3.37-7.81,10.84,10.84,0,0,1,8.18-3.56h73a10.88,10.88,0,0,1,8.19,3.56,11.19,11.19,0,0,1,3.37,7.81v58.74A11.52,11.52,0,0,1,1187.16,577.18Zm-69.44-54.32v34.67h49.69V522.86Z" transform="translate(-554 -462.93)" fill="#2d2762"/>
	<path d="M1274.21,502.75a11.28,11.28,0,0,0-8-3.4h-54.88a11.16,11.16,0,0,0-8,3.4,11,11,0,0,0-3.59,8.38v69.5h23.71V561.49h40.45V538.38h-40.45V522.49h54.29V511.13A10.92,10.92,0,0,0,1274.21,502.75Z" transform="translate(-554 -462.93)" fill="#2d2762"/>
	<path d="M1311.3,499.17V516.7H1366v23.69h-54.7v17.34H1366v23.11h-66.64a11.72,11.72,0,0,1-8.09-3.37,10.93,10.93,0,0,1-3.66-8.38V499.17Z" transform="translate(-554 -462.93)" fill="#2d2762"/>
</svg>